<svg width="137" height="31" viewBox="0 0 137 31" fill="none" xmlns="http://www.w3.org/2000/svg">
<path d="M10.635 11.0875C11.0034 11.2637 11.2357 11.6001 11.532 11.8644C12.8294 13.0816 14.0867 14.347 15.376 15.5723C15.7044 15.8846 16.0488 16.1729 16.3451 16.5093C15.0637 17.6945 13.8384 18.9278 12.5491 20.1131C11.9324 20.6737 11.3638 21.2903 10.7151 21.8189C10.6911 21.3224 10.7151 20.8258 10.7071 20.3373C10.7151 20.1932 10.6671 20.057 10.563 19.9689C9.05736 18.5434 7.54376 17.1259 6.05418 15.6764C5.33342 15.0037 4.59664 14.339 3.93994 13.6102C6.15829 13.5782 8.38465 13.6182 10.603 13.5862C10.6831 12.7533 10.627 11.9204 10.635 11.0875Z" fill="#00B962"/>
<path d="M1.89 12.345C2.10623 13.8345 1.48157 14.8036 0.912964 15.6845C0.448472 16.4053 0 17.086 0 18.023C0 19.4325 1.14521 20.5777 2.5547 20.5777C3.9642 20.5777 5.10941 19.4325 5.10941 18.023C5.1014 15.9167 3.57178 13.9947 1.89 12.345ZM2.5467 19.4325C3.33153 19.4325 3.9642 18.7998 3.9642 18.015C3.9642 17.8548 4.09233 17.7347 4.24449 17.7347C4.40466 17.7347 4.52479 17.8628 4.52479 18.015C4.52479 19.1121 3.63585 20.0011 2.53868 20.0011C2.37852 20.0011 2.25839 19.8729 2.25839 19.7208C2.2664 19.5606 2.39453 19.4325 2.5467 19.4325Z" fill="#00B962"/>
<path d="M9.50589 20.9938H0.984863V30.9723H9.50589V20.9938Z" fill="#00B962"/>
<path d="M7.35161 1.77339C8.64097 1.27687 10.0505 0.988552 11.46 0.964527C13.2859 0.916476 15.1198 0.956522 16.9458 0.948514C17.0339 1.62123 16.9858 2.30195 16.9938 2.98267C16.9698 4.45623 17.0339 5.92979 16.9538 7.40335C15.6003 7.45941 14.2389 7.3553 12.8855 7.48343C11.516 7.67564 10.1706 8.3884 9.54593 9.50158C9.09745 10.2143 9.15351 11.0632 9.15351 11.8561C7.51978 11.9281 5.88605 11.8961 4.25232 11.9121C3.16317 11.8961 2.07402 11.9522 0.984863 11.8561C0.992872 11.1513 0.98486 10.4386 1.01689 9.73381C1.15304 8.10008 1.70563 6.46635 2.8108 5.12894C3.88393 3.63936 5.54169 2.51818 7.35161 1.77339Z" fill="#00B962"/>
<path d="M22.7789 30.4054C21.4283 30.4054 20.3113 30.1363 19.4279 29.5982C18.5546 29.0498 17.8996 28.3288 17.463 27.4352C17.0263 26.5416 16.808 25.5668 16.808 24.5107V14.869H20.159V23.8862C20.159 24.922 20.4637 25.7547 21.0729 26.3843C21.6923 27.0037 22.5453 27.3134 23.6319 27.3134C24.3427 27.3134 24.9773 27.156 25.5358 26.8412C26.0943 26.5163 26.5361 26.0644 26.861 25.4856C27.1961 24.9068 27.3636 24.2366 27.3636 23.475V14.869H30.7146V29.9485H27.6987V28.1664C27.1098 28.8772 26.4091 29.4306 25.5968 29.8266C24.7946 30.2125 23.8553 30.4054 22.7789 30.4054ZM42.2601 30.4054C40.6354 30.4054 39.2086 30.0754 37.98 29.4154C36.7513 28.7452 35.7917 27.811 35.1011 26.6127C34.4208 25.4145 34.0806 24.0233 34.0806 22.4392C34.0806 21.2816 34.2786 20.2154 34.6747 19.2406C35.0707 18.2556 35.6292 17.4026 36.3502 16.6816C37.0711 15.9606 37.9139 15.4021 38.8786 15.0061C39.8535 14.6101 40.9146 14.4121 42.0621 14.4121C43.3111 14.4121 44.423 14.6355 45.3978 15.0823C46.3727 15.5189 47.1799 16.1333 47.8197 16.9253C48.4696 17.7174 48.9265 18.6465 49.1905 19.7127C49.4647 20.7688 49.5104 21.9163 49.3276 23.1551H37.2945C37.2742 24.0589 37.4722 24.8509 37.8886 25.5313C38.3049 26.2015 38.8989 26.7244 39.6707 27.1001C40.4526 27.4759 41.3716 27.6637 42.4276 27.6637C43.2806 27.6637 44.1031 27.5368 44.8952 27.2829C45.6974 27.0189 46.4234 26.633 47.0733 26.1253L48.368 28.5319C47.8806 28.928 47.2916 29.2681 46.6011 29.5525C45.9106 29.8266 45.1897 30.0348 44.4382 30.177C43.6868 30.3293 42.9607 30.4054 42.2601 30.4054ZM37.4925 20.6876H46.0376C46.0071 19.5503 45.6415 18.6567 44.9409 18.0068C44.2504 17.3569 43.2654 17.0319 41.9859 17.0319C40.7471 17.0319 39.7164 17.3569 38.8939 18.0068C38.0815 18.6567 37.6144 19.5503 37.4925 20.6876ZM52.8086 29.9485V8.01473H56.1595V29.9485H52.8086ZM67.1476 30.4054C65.6752 30.4054 64.4973 29.9789 63.6138 29.126C62.7304 28.273 62.2887 26.9681 62.2887 25.2114V10.467H65.6397V14.869H69.8284V17.6412H65.6397V24.4803C65.6397 25.5363 65.8377 26.2827 66.2337 26.7194C66.6399 27.1458 67.2085 27.3591 67.9397 27.3591C68.2951 27.3591 68.6302 27.3185 68.945 27.2372C69.2597 27.156 69.5441 27.0494 69.7979 26.9174L70.392 29.6286C69.9553 29.852 69.4527 30.0348 68.884 30.177C68.3255 30.3293 67.7467 30.4054 67.1476 30.4054ZM58.9834 17.6412V14.869H62.7304V17.6412H58.9834ZM73.901 29.9485V14.869H77.252V29.9485H73.901ZM75.5765 12.173C74.9774 12.173 74.4595 11.9801 74.0228 11.5942C73.5862 11.2083 73.3679 10.7006 73.3679 10.071C73.3679 9.4516 73.5862 8.94895 74.0228 8.56308C74.4595 8.16705 74.9774 7.96904 75.5765 7.96904C76.1756 7.96904 76.6935 8.16705 77.1301 8.56308C77.5668 8.94895 77.7851 9.4516 77.7851 10.071C77.7851 10.7006 77.5668 11.2083 77.1301 11.5942C76.6935 11.9801 76.1756 12.173 75.5765 12.173ZM81.9036 29.9485V14.869H85.2546V16.9406C85.6608 16.3516 86.1279 15.8743 86.6559 15.5088C87.184 15.133 87.7425 14.8589 88.3314 14.6862C88.9204 14.5035 89.5195 14.4121 90.1288 14.4121C91.3575 14.4121 92.378 14.6812 93.1904 15.2194C94.0129 15.7576 94.5917 16.4481 94.9268 17.2909C95.6782 16.1942 96.5515 15.4428 97.5466 15.0366C98.5418 14.6202 99.542 14.4121 100.547 14.4121C101.938 14.4121 103.05 14.6863 103.883 15.2346C104.716 15.7829 105.315 16.4887 105.68 17.3518C106.056 18.2149 106.244 19.1035 106.244 20.0174V29.9485H102.893V20.9922C102.893 19.9463 102.604 19.1035 102.025 18.4637C101.456 17.8138 100.623 17.4889 99.5268 17.4889C98.8058 17.4889 98.161 17.6463 97.5923 17.9611C97.0237 18.2759 96.5718 18.7125 96.2367 19.271C95.9118 19.8194 95.7493 20.454 95.7493 21.175V29.9485H92.3983V20.9922C92.3983 19.9463 92.114 19.1035 91.5453 18.4637C90.9767 17.8138 90.1389 17.4889 89.0321 17.4889C88.3213 17.4889 87.6765 17.6463 87.0977 17.9611C86.529 18.2759 86.0771 18.7125 85.742 19.271C85.4171 19.8194 85.2546 20.454 85.2546 21.175V29.9485H81.9036ZM117.645 30.4054C116.021 30.4054 114.594 30.0754 113.365 29.4154C112.137 28.7452 111.177 27.811 110.487 26.6127C109.806 25.4145 109.466 24.0233 109.466 22.4392C109.466 21.2816 109.664 20.2154 110.06 19.2406C110.456 18.2556 111.015 17.4026 111.736 16.6816C112.456 15.9606 113.299 15.4021 114.264 15.0061C115.239 14.6101 116.3 14.4121 117.447 14.4121C118.696 14.4121 119.808 14.6355 120.783 15.0823C121.758 15.5189 122.565 16.1333 123.205 16.9253C123.855 17.7174 124.312 18.6465 124.576 19.7127C124.85 20.7688 124.896 21.9163 124.713 23.1551H112.68C112.66 24.0589 112.858 24.8509 113.274 25.5313C113.69 26.2015 114.284 26.7244 115.056 27.1001C115.838 27.4759 116.757 27.6637 117.813 27.6637C118.666 27.6637 119.488 27.5368 120.281 27.2829C121.083 27.0189 121.809 26.633 122.459 26.1253L123.753 28.5319C123.266 28.928 122.677 29.2681 121.987 29.5525C121.296 29.8266 120.575 30.0348 119.824 30.177C119.072 30.3293 118.346 30.4054 117.645 30.4054ZM112.878 20.6876H121.423C121.392 19.5503 121.027 18.6567 120.326 18.0068C119.636 17.3569 118.651 17.0319 117.371 17.0319C116.132 17.0319 115.102 17.3569 114.279 18.0068C113.467 18.6567 113 19.5503 112.878 20.6876Z" fill="#00B962"/>
</svg>
